<?xml version="1.0" encoding="UTF-8" standalone="no"?>
<!-- Created with Inkscape (http://www.inkscape.org/) -->
<svg
   xmlns:svg="http://www.w3.org/2000/svg"
   xmlns="http://www.w3.org/2000/svg"
   version="1.0"
   width="320"
   height="404"
   id="svg2">
  <defs
     id="defs5">
    <marker
       refX="0"
       refY="0"
       orient="auto"
       style="overflow:visible"
       id="TriangleOutL">
      <path
         d="M 5.77,0 L -2.88,5 L -2.88,-5 L 5.77,0 z "
         transform="scale(0.8,0.8)"
         style="fill-rule:evenodd;stroke:#000000;stroke-width:1pt;marker-start:none"
         id="path7129" />
    </marker>
  </defs>
  <path
     d="M 13.866539,66.962803 L 298.56198,66.861698"
     style="opacity:1;fill:none;fill-opacity:1;fill-rule:evenodd;stroke:#ff0000;stroke-width:2;stroke-linecap:butt;stroke-linejoin:miter;marker-end:none;stroke-miterlimit:4;stroke-dasharray:none;stroke-opacity:1"
     id="path2174" />
  <path
     d="M 13.586294,38.964466 L 78.185279,38.964466 L 82.799492,41.015228 L 94.591371,41.015228 L 244.5533,19.225888 L 298.28173,19.225888"
     style="fill:none;fill-opacity:1;fill-rule:evenodd;stroke:#ff0000;stroke-width:2;stroke-linecap:butt;stroke-linejoin:miter;marker-end:none;stroke-miterlimit:4;stroke-dasharray:none;stroke-opacity:1"
     id="path6057" />
  <path
     d="M 14.137054,94.969666 L 78.736039,94.969666 L 83.350252,92.918896 L 95.14213,92.918896 L 245.10406,114.70823 L 298.83249,114.70823"
     style="fill:none;fill-opacity:1;fill-rule:evenodd;stroke:#ff0000;stroke-width:2;stroke-linecap:butt;stroke-linejoin:miter;marker-end:none;stroke-miterlimit:4;stroke-dasharray:none;stroke-opacity:1"
     id="path2170" />
  <path
     d="M 67.067463,14.464935 L 75.40558,14.464935 C 75.40558,14.464935 81.25797,39.930327 81.387273,67.121948 C 81.568536,93.586407 75.40558,119.77896 75.40558,119.77896 L 67.067463,119.77896 C 67.067463,119.77896 62.173351,93.76767 62.173351,67.121948 C 62.883845,40.122438 67.067463,14.464935 67.067463,14.464935 z "
     style="opacity:1;fill:#9cc6d8;fill-opacity:0.54117647;fill-rule:evenodd;stroke:#000000;stroke-width:1px;stroke-linecap:butt;stroke-linejoin:miter;stroke-opacity:1"
     id="path3134" />
  <path
     d="M 77.580741,14.283661 L 100.41993,14.283661 C 100.41993,14.283661 93.374105,38.935343 93.531921,67.031314 C 94.075711,95.48967 100.23866,119.59771 100.23866,119.59771 L 77.943268,119.59771 C 77.943268,119.59771 83.92496,95.670933 84.106224,67.031314 C 84.488907,39.117017 77.580741,14.283661 77.580741,14.283661 z "
     style="opacity:1;fill:#9cc6d8;fill-opacity:0.54117647;fill-rule:evenodd;stroke:#000000;stroke-width:1px;stroke-linecap:butt;stroke-linejoin:miter;stroke-opacity:1"
     id="path2161" />
  <path
     d="M 246.38134,14.107605 L 254.71946,14.107605 C 254.71946,14.107605 260.57185,39.572997 260.70115,66.764618 C 260.88241,93.229078 254.71946,119.42164 254.71946,119.42164 L 246.38134,119.42164 C 246.38134,119.42164 241.48723,93.410338 241.48723,66.764618 C 242.19772,39.765108 246.38134,14.107605 246.38134,14.107605 z "
     style="opacity:1;fill:#9cc6d8;fill-opacity:0.54222221;fill-rule:evenodd;stroke:#000000;stroke-width:1px;stroke-linecap:butt;stroke-linejoin:miter;stroke-opacity:1"
     id="path5074" />
  <path
     d="M 293.19481,15.12436 L 293.19481,23.327418 L 306.65293,19.225889 L 293.19481,15.12436 z "
     style="fill:#ff0000;fill-opacity:1;fill-rule:evenodd;stroke:none;stroke-width:1px;stroke-linecap:butt;stroke-linejoin:miter;stroke-opacity:1"
     id="path7226" />
  <path
     d="M 293.19481,110.6065 L 293.19481,118.80956 L 306.65293,114.70803 L 293.19481,110.6065 z "
     style="fill:#ff0000;fill-opacity:1;fill-rule:evenodd;stroke:none;stroke-width:1px;stroke-linecap:butt;stroke-linejoin:miter;stroke-opacity:1"
     id="path2172" />
  <path
     d="M 293.19481,62.748519 L 293.19481,70.951577 L 306.65293,66.850048 L 293.19481,62.748519 z "
     style="fill:#ff0000;fill-opacity:1;fill-rule:evenodd;stroke:none;stroke-width:1px;stroke-linecap:butt;stroke-linejoin:miter;stroke-opacity:1"
     id="path2177" />
  <path
     d="M 13.078673,174.96957 L 57.677653,174.96957 L 138.29187,184.3287 L 149.18653,184.3287 L 258.04573,175.09265 L 297.77416,175.09265"
     style="opacity:1;fill:none;fill-opacity:1;fill-rule:evenodd;stroke:#ff0000;stroke-width:2;stroke-linecap:butt;stroke-linejoin:miter;marker-end:none;stroke-miterlimit:4;stroke-dasharray:none;stroke-opacity:1"
     id="path4119" />
  <path
     d="M 13.078583,231.10062 L 57.677563,231.10062 L 138.29179,221.74149 L 149.18645,221.74149 L 258.04565,230.97754 L 297.77408,230.97754"
     style="opacity:1;fill:none;fill-opacity:1;fill-rule:evenodd;stroke:#ff0000;stroke-width:2;stroke-linecap:butt;stroke-linejoin:miter;marker-end:none;stroke-miterlimit:4;stroke-dasharray:none;stroke-opacity:1"
     id="path4121" />
  <path
     d="M 13.023056,203.02942 L 297.71849,202.92832"
     style="fill:none;fill-opacity:1;fill-rule:evenodd;stroke:#ff0000;stroke-width:2;stroke-linecap:butt;stroke-linejoin:miter;marker-end:none;stroke-miterlimit:4;stroke-dasharray:none;stroke-opacity:1"
     id="path4123" />
  <path
     d="M 246.50347,150.62466 L 254.84159,150.62466 C 254.84159,150.62466 260.69398,176.09006 260.82328,203.28168 C 261.00455,229.74614 254.84159,255.93869 254.84159,255.93869 L 246.50347,255.93869 C 246.50347,255.93869 241.60936,229.9274 241.60936,203.28168 C 242.31986,176.28217 246.50347,150.62466 246.50347,150.62466 z "
     style="opacity:1;fill:#9cc6d8;fill-opacity:0.54117647;fill-rule:evenodd;stroke:#000000;stroke-width:1px;stroke-linecap:butt;stroke-linejoin:miter;stroke-opacity:1"
     id="path5078" />
  <path
     d="M 132.13373,150.51809 L 154.97292,150.51809 C 154.97292,150.51809 147.92709,175.16977 148.08491,203.26575 C 148.6287,231.7241 154.79165,255.83214 154.79165,255.83214 L 132.49626,255.83214 C 132.49626,255.83214 138.47795,231.90536 138.65921,203.26575 C 139.0419,175.35145 132.13373,150.51809 132.13373,150.51809 z "
     style="opacity:1;fill:#9cc6d8;fill-opacity:0.54117647;fill-rule:evenodd;stroke:#000000;stroke-width:1px;stroke-linecap:butt;stroke-linejoin:miter;stroke-opacity:1"
     id="path5084" />
  <path
     d="M 46.041537,150.62471 L 54.379654,150.62471 C 54.379654,150.62471 60.232044,176.09011 60.361347,203.28173 C 60.54261,229.74619 54.379654,255.93874 54.379654,255.93874 L 46.041537,255.93874 C 46.041537,255.93874 41.147425,229.92745 41.147425,203.28173 C 41.857919,176.28222 46.041537,150.62471 46.041537,150.62471 z "
     style="opacity:1;fill:#9cc6d8;fill-opacity:0.54117647;fill-rule:evenodd;stroke:#000000;stroke-width:1px;stroke-linecap:butt;stroke-linejoin:miter;stroke-opacity:1"
     id="path5076" />
  <path
     d="M 293.09895,170.96278 L 293.09895,179.16584 L 306.55707,175.06431 L 293.09895,170.96278 z "
     style="fill:#ff0000;fill-opacity:1;fill-rule:evenodd;stroke:none;stroke-width:1px;stroke-linecap:butt;stroke-linejoin:miter;stroke-opacity:1"
     id="path4125" />
  <path
     d="M 293.09895,198.87736 L 293.09895,207.08042 L 306.55707,202.97889 L 293.09895,198.87736 z "
     style="fill:#ff0000;fill-opacity:1;fill-rule:evenodd;stroke:none;stroke-width:1px;stroke-linecap:butt;stroke-linejoin:miter;stroke-opacity:1"
     id="path4127" />
  <path
     d="M 293.09895,226.79191 L 293.09895,234.99497 L 306.55707,230.89344 L 293.09895,226.79191 z "
     style="fill:#ff0000;fill-opacity:1;fill-rule:evenodd;stroke:none;stroke-width:1px;stroke-linecap:butt;stroke-linejoin:miter;stroke-opacity:1"
     id="path4129" />
  <path
     d="M 13.211922,311.11357 L 62.425115,311.11357 L 78.208611,311.56228 L 227.54943,323.85342 L 237.31973,323.85342 L 241.7703,322.96384 L 297.90735,322.96384"
     style="opacity:1;fill:none;fill-opacity:1;fill-rule:evenodd;stroke:#ff0000;stroke-width:2;stroke-linecap:butt;stroke-linejoin:miter;marker-end:none;stroke-miterlimit:4;stroke-dasharray:none;stroke-opacity:1"
     id="path5100" />
  <path
     d="M 13.211922,367.32805 L 62.425115,367.32805 L 78.208615,366.87934 L 227.54943,354.5882 L 237.31973,354.5882 L 241.7703,355.47778 L 297.90735,355.47778"
     style="opacity:1;fill:none;fill-opacity:1;fill-rule:evenodd;stroke:#ff0000;stroke-width:2;stroke-linecap:butt;stroke-linejoin:miter;marker-end:none;stroke-miterlimit:4;stroke-dasharray:none;stroke-opacity:1"
     id="path6071" />
  <path
     d="M 13.211922,339.06705 L 297.90738,339.06705"
     style="opacity:1;fill:none;fill-opacity:1;fill-rule:evenodd;stroke:#ff0000;stroke-width:2;stroke-linecap:butt;stroke-linejoin:miter;marker-end:none;stroke-miterlimit:4;stroke-dasharray:none;stroke-opacity:1"
     id="path6073" />
  <path
     d="M 67.061839,286.48763 L 75.399956,286.48763 C 75.399956,286.48763 81.252346,311.95302 81.381649,339.14464 C 81.562912,365.6091 75.399956,391.80165 75.399956,391.80165 L 67.061839,391.80165 C 67.061839,391.80165 62.167727,365.79036 62.167727,339.14464 C 62.878221,312.14513 67.061839,286.48763 67.061839,286.48763 z "
     style="opacity:1;fill:#9cc6d8;fill-opacity:0.54117647;fill-rule:evenodd;stroke:#000000;stroke-width:1px;stroke-linecap:butt;stroke-linejoin:miter;stroke-opacity:1"
     id="path5080" />
  <path
     d="M 246.75976,286.744 L 255.09788,286.744 C 255.09788,286.744 260.95027,312.20939 261.07957,339.40102 C 261.26083,365.86547 255.09788,392.05803 255.09788,392.05803 L 246.75976,392.05803 C 246.75976,392.05803 241.86565,366.04674 241.86565,339.40102 C 242.57614,312.40151 246.75976,286.744 246.75976,286.744 z "
     style="opacity:1;fill:#9cc6d8;fill-opacity:0.54117647;fill-rule:evenodd;stroke:#000000;stroke-width:1px;stroke-linecap:butt;stroke-linejoin:miter;stroke-opacity:1"
     id="path5082" />
  <path
     d="M 221.85449,286.6855 L 244.69368,286.6855 C 244.69368,286.6855 237.64786,311.33718 237.80567,339.43315 C 238.34946,367.89151 244.51241,391.99955 244.51241,391.99955 L 222.21702,391.99955 C 222.21702,391.99955 228.19871,368.07277 228.37998,339.43315 C 228.76266,311.51886 221.85449,286.6855 221.85449,286.6855 z "
     style="opacity:1;fill:#9cc6d8;fill-opacity:0.54117647;fill-rule:evenodd;stroke:#000000;stroke-width:1px;stroke-linecap:butt;stroke-linejoin:miter;stroke-opacity:1"
     id="path5086" />
  <path
     d="M 293.13069,318.82938 L 293.13069,327.03244 L 306.58881,322.93091 L 293.13069,318.82938 z "
     style="fill:#ff0000;fill-opacity:1;fill-rule:evenodd;stroke:none;stroke-width:1px;stroke-linecap:butt;stroke-linejoin:miter;stroke-opacity:1"
     id="path6075" />
  <path
     d="M 293.19484,334.91497 L 293.19484,343.11803 L 306.65296,339.0165 L 293.19484,334.91497 z "
     style="fill:#ff0000;fill-opacity:1;fill-rule:evenodd;stroke:none;stroke-width:1px;stroke-linecap:butt;stroke-linejoin:miter;stroke-opacity:1"
     id="path6077" />
  <path
     d="M 293.13069,351.32107 L 293.13069,359.52413 L 306.58881,355.4226 L 293.13069,351.32107 z "
     style="fill:#ff0000;fill-opacity:1;fill-rule:evenodd;stroke:none;stroke-width:1px;stroke-linecap:butt;stroke-linejoin:miter;stroke-opacity:1"
     id="path6079" />
  <path
     d="M 89.176078,67.034264 C 107.63293,157.26776 179.5698,274.76998 233.40229,338.59993"
     style="fill:none;fill-rule:evenodd;stroke:#000000;stroke-width:1;stroke-linecap:round;stroke-linejoin:miter;stroke-miterlimit:4;stroke-dasharray:4, 4;stroke-dashoffset:0;stroke-opacity:1"
     id="path7050" />
  <path
     d="M 71.263959,66.906091 C 42.986867,162.25065 43.349394,243.28742 71.26396,338.63198"
     style="fill:none;fill-rule:evenodd;stroke:#000000;stroke-width:1;stroke-linecap:round;stroke-linejoin:miter;stroke-miterlimit:4;stroke-dasharray:4, 4;stroke-dashoffset:0;stroke-opacity:1"
     id="path7052" />
  <text
     x="29.914568"
     y="142.27397"
     style="font-size:12px;font-style:normal;font-weight:normal;fill:#000000;fill-opacity:1;stroke:none;stroke-width:1px;stroke-linecap:butt;stroke-linejoin:miter;stroke-opacity:1;font-family:Arial"
     id="text7054"
     xml:space="preserve"><tspan
       x="29.914568"
       y="142.27397"
       style="font-size:17px;font-style:italic;font-family:Nimbus Roman No9 L"
       id="tspan7056">L</tspan></text>
  <text
     x="39.334167"
     y="148.61815"
     style="font-size:12px;font-style:normal;font-weight:normal;fill:#000000;fill-opacity:1;stroke:none;stroke-width:1px;stroke-linecap:butt;stroke-linejoin:miter;stroke-opacity:1;font-family:Arial"
     id="text7058"
     xml:space="preserve"><tspan
       x="39.334167"
       y="148.61815"
       style="font-style:italic;font-family:Nimbus Roman No9 L"
       id="tspan7060">1</tspan></text>
  <text
     x="135.88509"
     y="142.55511"
     style="font-size:12px;font-style:normal;font-weight:normal;fill:#000000;fill-opacity:1;stroke:none;stroke-width:1px;stroke-linecap:butt;stroke-linejoin:miter;stroke-opacity:1;font-family:Arial"
     id="text7062"
     xml:space="preserve"><tspan
       x="135.88509"
       y="142.55511"
       style="font-size:17px;font-style:italic;font-family:Nimbus Roman No9 L"
       id="tspan7064">L</tspan></text>
  <text
     x="145.66721"
     y="148.53677"
     style="font-size:12px;font-style:normal;font-weight:normal;fill:#000000;fill-opacity:1;stroke:none;stroke-width:1px;stroke-linecap:butt;stroke-linejoin:miter;stroke-opacity:1;font-family:Arial"
     id="text7066"
     xml:space="preserve"><tspan
       x="145.66721"
       y="148.53677"
       style="font-style:italic;font-family:Nimbus Roman No9 L"
       id="tspan7068">2</tspan></text>
  <text
     x="245.73058"
     y="142.18652"
     style="font-size:12px;font-style:normal;font-weight:normal;fill:#000000;fill-opacity:1;stroke:none;stroke-width:1px;stroke-linecap:butt;stroke-linejoin:miter;stroke-opacity:1;font-family:Arial"
     id="text7070"
     xml:space="preserve"><tspan
       x="245.73058"
       y="142.18652"
       style="font-size:17px;font-style:italic;font-family:Nimbus Roman No9 L"
       id="tspan7072">L</tspan></text>
  <text
     x="255.69395"
     y="148.34944"
     style="font-size:12px;font-style:normal;font-weight:normal;fill:#000000;fill-opacity:1;stroke:none;stroke-width:1px;stroke-linecap:butt;stroke-linejoin:miter;stroke-opacity:1;font-family:Arial"
     id="text7074"
     xml:space="preserve"><tspan
       x="255.69395"
       y="148.34944"
       style="font-style:italic;font-family:Nimbus Roman No9 L"
       id="tspan7076">3</tspan></text>
</svg>
